<svg xmlns="http://www.w3.org/2000/svg" viewBox="0 0 64 64"><defs><style>.cls-1{fill:#0b0d14;}</style></defs><g id="Layer_1" data-name="Layer 1"><path class="cls-1" d="M55.54,22.23a17.17,17.17,0,0,0-1.1-5.75,12.11,12.11,0,0,0-6.92-6.92,17.17,17.17,0,0,0-5.75-1.1c-2.53-.12-3.34-.15-9.77-.15s-7.24,0-9.77.15a17.17,17.17,0,0,0-5.75,1.1,12.11,12.11,0,0,0-6.92,6.92,17.17,17.17,0,0,0-1.1,5.75c-.12,2.53-.15,3.34-.15,9.77s0,7.24.15,9.77a17.17,17.17,0,0,0,1.1,5.75,12.11,12.11,0,0,0,6.92,6.92,17.17,17.17,0,0,0,5.75,1.1c2.53.12,3.34.15,9.77.15s7.24,0,9.77-.15a17.17,17.17,0,0,0,5.75-1.1,12.11,12.11,0,0,0,6.92-6.92,17.17,17.17,0,0,0,1.1-5.75c.12-2.53.15-3.34.15-9.77S55.66,24.76,55.54,22.23ZM51.28,41.57a13.1,13.1,0,0,1-.81,4.4,7.95,7.95,0,0,1-4.5,4.5,13.1,13.1,0,0,1-4.4.81c-2.5.12-3.24.14-9.57.14s-7.07,0-9.57-.14a13.1,13.1,0,0,1-4.4-.81,7.95,7.95,0,0,1-4.5-4.5,13.1,13.1,0,0,1-.81-4.4c-.12-2.5-.14-3.25-.14-9.57s0-7.07.14-9.57a13.1,13.1,0,0,1,.81-4.4,7.95,7.95,0,0,1,4.5-4.5,13.1,13.1,0,0,1,4.4-.81c2.5-.12,3.25-.14,9.57-.14s7.07,0,9.57.14a13.1,13.1,0,0,1,4.4.81,7.95,7.95,0,0,1,4.5,4.5,13.1,13.1,0,0,1,.81,4.4c.12,2.5.14,3.25.14,9.57S51.4,39.07,51.28,41.57ZM32,19.84A12.16,12.16,0,1,0,44.16,32,12.15,12.15,0,0,0,32,19.84ZM32,39.9A7.9,7.9,0,1,1,39.9,32,7.9,7.9,0,0,1,32,39.9ZM47.49,19.36a2.85,2.85,0,1,1-2.85-2.85A2.85,2.85,0,0,1,47.49,19.36Z"/></g></svg>