<svg xmlns="http://www.w3.org/2000/svg" viewBox="0 0 64 64"><defs><style>.cls-1{fill:#0b0d14;}</style></defs><g id="Layer_1" data-name="Layer 1"><path class="cls-1" d="M60.28,17.81a7.42,7.42,0,0,0-5.2-5.2C50.46,11.35,32,11.35,32,11.35s-18.46,0-23.08,1.22a7.54,7.54,0,0,0-5.2,5.24C2.51,22.43,2.51,32,2.51,32s0,9.62,1.21,14.19a7.42,7.42,0,0,0,5.2,5.2C13.59,52.65,32,52.65,32,52.65s18.46,0,23.08-1.22a7.4,7.4,0,0,0,5.2-5.19c1.21-4.62,1.21-14.19,1.21-14.19S61.54,22.43,60.28,17.81Zm-34.16,23V23.16L41.47,32Z"/></g></svg>