<svg xmlns="http://www.w3.org/2000/svg" viewBox="0 0 64 64"><defs><style>.cls-1{fill:#0b0d14;}</style></defs><g id="Layer_1" data-name="Layer 1"><path class="cls-1" d="M33.78,29.68v-.07l-.05.07Z"/><path class="cls-1" d="M52.06,8.31H11.94a3.44,3.44,0,0,0-3.48,3.4V52.29a3.44,3.44,0,0,0,3.48,3.4H52.06a3.44,3.44,0,0,0,3.48-3.4V11.71A3.44,3.44,0,0,0,52.06,8.31ZM22.73,48H15.62V26.58h7.11ZM19.18,23.66h-.05a3.71,3.71,0,1,1,.09-7.39,3.71,3.71,0,1,1,0,7.39ZM48.37,48H41.26V36.53c0-2.88-1-4.84-3.6-4.84A3.89,3.89,0,0,0,34,34.29,4.81,4.81,0,0,0,33.78,36V48H26.67s.09-19.38,0-21.39h7.11v3a7,7,0,0,1,6.41-3.53c4.67,0,8.18,3.05,8.18,9.62Z"/></g></svg>