<?xml version="1.0" encoding="UTF-8"?><svg id="Warstwa_2" xmlns="http://www.w3.org/2000/svg" viewBox="0 0 341.16 63.71"><g id="Layer_1"><path d="m9.55,58.11c-2.76-1.12-5.16-2.99-6.93-5.39C.9,50.29-.02,47.39,0,44.41h11.23c.05,1.93.87,3.77,2.28,5.09,1.58,1.32,3.6,2,5.65,1.88,2.07.11,4.11-.52,5.75-1.78,1.37-1.13,2.14-2.83,2.09-4.61.05-1.41-.46-2.78-1.42-3.81-1-1.04-2.22-1.84-3.56-2.36-1.92-.74-3.88-1.37-5.87-1.91-2.82-.8-5.59-1.81-8.27-3-2.14-.97-4-2.45-5.44-4.31C.81,27.3,0,24.52.15,21.7c-.07-2.87.74-5.7,2.32-8.1,1.61-2.35,3.88-4.19,6.51-5.28,3.03-1.27,6.29-1.89,9.58-1.83,5.39,0,9.77,1.31,13.14,3.93,3.4,2.66,5.44,6.69,5.58,11h-11.53c-.08-1.74-.91-3.37-2.28-4.45-1.62-1.23-3.62-1.86-5.65-1.76-1.77-.11-3.51.43-4.91,1.51-1.27,1.17-1.94,2.85-1.83,4.57-.04,1.3.46,2.56,1.38,3.48.99.97,2.16,1.73,3.45,2.24,1.9.77,3.83,1.43,5.8,2,2.84.8,5.62,1.8,8.31,3,2.18,1.03,4.07,2.57,5.53,4.49,1.65,2.27,2.48,5.04,2.36,7.84.02,2.75-.73,5.44-2.17,7.78-1.53,2.48-3.73,4.47-6.36,5.73-3.12,1.5-6.54,2.23-10,2.13-3.37.05-6.72-.58-9.83-1.87Z" fill="#0b0d14"/><path d="m64.47,15.6v13.1h17.59v8.31h-17.59v13.84h19.84v8.53h-30.31V7.07h30.31v8.53h-19.84Z" fill="#0b0d14"/><path d="m193.64,6.84v32.34c0,3.54.92,6.25,2.76,8.12s4.44,2.81,7.79,2.8c3.39,0,6.01-.93,7.86-2.8,1.84-1.87,2.77-4.58,2.77-8.12V6.84h10.55v32.26c.13,3.95-.87,7.86-2.88,11.26-1.85,3.01-4.53,5.41-7.71,6.93-3.36,1.58-7.03,2.36-10.74,2.31-3.66.05-7.29-.74-10.59-2.32-3.14-1.51-5.77-3.92-7.54-6.92-1.94-3.43-2.9-7.32-2.77-11.26V6.84h10.5Z" fill="#0b0d14"/><path d="m276.49,7.1v8.5h-13.92v43.79h-10.48V15.6h-13.92V7.1h38.32Z" fill="#0b0d14"/><path d="m312.81,6.47c-15.66,0-28.36,12-28.36,26.76s12.7,26.75,28.36,26.75,28.35-12,28.35-26.75-12.69-26.76-28.35-26.76Zm0,44.16c-9.59-.11-17.28-7.98-17.17-17.57.11-9.59,7.98-17.28,17.57-17.17,9.51.11,17.17,7.85,17.17,17.37-.08,9.63-7.94,17.39-17.57,17.34v.03Z" fill="#0b0d14"/><path d="m159.15,0l-7.94,45h0c-.24,1.36-1.54,2.26-2.9,2.02-.68-.12-1.28-.52-1.66-1.1l-20-30.91c-3.76-5.8-11.52-7.45-17.32-3.69-2.91,1.89-4.91,4.9-5.51,8.32l-7.46,42.33,9.86,1.74,7.46-42.33h0c.25-1.36,1.55-2.27,2.92-2.03.68.12,1.28.52,1.65,1.1l20,30.91c2.29,3.56,6.23,5.72,10.47,5.72.85,0,1.69-.09,2.52-.26,5.05-1,8.97-5.01,9.84-10.09l7.94-45-9.87-1.73Z" fill="#0b0d14"/></g></svg>