<svg xmlns="http://www.w3.org/2000/svg" viewBox="0 0 1920 1200"><defs><style>.cls-1{fill:#f2e5b2;}.cls-2{fill:#f2e5b2;}.cls-3{fill:#f2e5b2;}.cls-4{fill:#f2e5b2;}.cls-5{fill:#f2e5b2;}.cls-6{fill:#f2e5b2;}.cls-7{fill:#f2e5b2;}.cls-8{fill:#f2e5b2;}.cls-9{fill:#f2e5b2;}.cls-10{fill:#f2e5b2;}.cls-11{fill:#f2e5b2;}.cls-12{fill:#f2e5b2;}.cls-13{fill:#f2e5b2;}.cls-14,.cls-15{fill:#f2e5b2;}.cls-14{opacity:0.5;}.cls-15{opacity:0.3;}</style></defs><g id="Layer_1" data-name="Layer 1"><path class="cls-1" d="M830.72,572.83v-.07a8.05,8.05,0,0,1-7.3-7.3h-.07a8,8,0,0,1-7.29,7.3v.07a8,8,0,0,1,7.29,7.29h.07A8,8,0,0,1,830.72,572.83Z"/><path class="cls-2" d="M1053.05,415V415a10,10,0,0,1-9.07-9.07h-.08a10,10,0,0,1-9.07,9.07V415a10,10,0,0,1,9.07,9.07h.08A10,10,0,0,1,1053.05,415Z"/><path class="cls-3" d="M419.89,452.45v-.07a7.46,7.46,0,0,1-6.77-6.77h-.06a7.46,7.46,0,0,1-6.77,6.77v.07a7.47,7.47,0,0,1,6.77,6.77h.06A7.47,7.47,0,0,1,419.89,452.45Z"/><path class="cls-4" d="M1087.13,677.55v-.1a11.35,11.35,0,0,1-10.3-10.3h-.1a11.37,11.37,0,0,1-10.31,10.3v.1a11.37,11.37,0,0,1,10.31,10.31h.1A11.36,11.36,0,0,1,1087.13,677.55Z"/><path class="cls-2" d="M1463.12,618.7v-.06a8,8,0,0,1-7.25-7.25h-.06a8,8,0,0,1-7.25,7.25v.06a8,8,0,0,1,7.25,7.25h.06A8,8,0,0,1,1463.12,618.7Z"/><path class="cls-5" d="M959,866.05v0a5.55,5.55,0,0,1-5-5h-.05a5.55,5.55,0,0,1-5,5v0a5.56,5.56,0,0,1,5,5H954A5.57,5.57,0,0,1,959,866.05Z"/><path class="cls-5" d="M1003.56,600v0a5.57,5.57,0,0,1-5-5h0a5.55,5.55,0,0,1-5,5v0a5.55,5.55,0,0,1,5,5h0A5.57,5.57,0,0,1,1003.56,600Z"/><path class="cls-6" d="M1320.92,710.08V710a11.37,11.37,0,0,1-10.3-10.31h-.1A11.37,11.37,0,0,1,1300.21,710v.09a11.37,11.37,0,0,1,10.31,10.31h.1A11.37,11.37,0,0,1,1320.92,710.08Z"/><circle class="cls-7" cx="1467.13" cy="405.88" r="4.01"/><circle class="cls-8" cx="1512.42" cy="834.96" r="4.01"/><circle class="cls-9" cx="964.28" cy="260.86" r="4.01"/><circle class="cls-9" cx="463.37" cy="687.86" r="4.01"/><circle class="cls-10" cx="318.78" cy="933.28" r="4.01"/><circle class="cls-11" cx="598.58" cy="564.78" r="4.01"/><circle class="cls-11" cx="1187.56" cy="834.96" r="4.01"/><circle class="cls-11" cx="770.27" cy="974.55" r="4.01"/><circle class="cls-10" cx="1270.99" cy="483.44" r="4.01"/><circle class="cls-12" cx="953.93" cy="1018.88" r="4.01"/><circle class="cls-12" cx="1178.13" cy="954.08" r="4.01"/><circle class="cls-13" cx="1238.52" cy="553.2" r="4.01"/><circle class="cls-14" cx="788.67" cy="424.11" r="3.1"/><circle class="cls-14" cx="741.44" cy="710.03" r="3.1"/><circle class="cls-15" cx="1210.6" cy="296.33" r="3.1"/><circle class="cls-15" cx="1374.73" cy="445.61" r="3.1"/><circle class="cls-15" cx="1013.96" cy="954.08" r="3.1"/><circle class="cls-15" cx="1455.84" cy="745.37" r="3.1"/><circle class="cls-15" cx="574.22" cy="830.95" r="3.1"/><circle class="cls-15" cx="623.76" cy="401.88" r="3.1"/></g></svg>