<svg xmlns="http://www.w3.org/2000/svg" viewBox="0 0 1920 1200"><defs><style>.cls-1{fill:#ffba16;}.cls-2{fill:#e412f7;}.cls-3{fill:#4a3fb4;}.cls-4{fill:#b5b5bf;}.cls-5{fill:#ff4906;}.cls-6{fill:#6755ff;}.cls-7{fill:#6599ff;}.cls-8{fill:#c0f1bd;}.cls-9{fill:#00ac61;}.cls-10{fill:#cab6ff;}.cls-11{fill:#ab49ff;}</style></defs><g id="Layer_1" data-name="Layer 1"><path class="cls-1" d="M328.42,289.64v-.06a7.26,7.26,0,0,1-6.58-6.58h-.06a7.26,7.26,0,0,1-6.58,6.58v.06a7.26,7.26,0,0,1,6.58,6.58h.06A7.26,7.26,0,0,1,328.42,289.64Z"/><path class="cls-2" d="M287.17,750.94v-.06a7.26,7.26,0,0,1-6.58-6.58h-.06a7.26,7.26,0,0,1-6.58,6.58v.06a7.26,7.26,0,0,1,6.58,6.58h.06A7.26,7.26,0,0,1,287.17,750.94Z"/><path class="cls-3" d="M168.42,478.52v-.06a7.26,7.26,0,0,1-6.58-6.58h-.06a7.26,7.26,0,0,1-6.58,6.58v.06a7.26,7.26,0,0,1,6.58,6.59h.06A7.26,7.26,0,0,1,168.42,478.52Z"/><path class="cls-3" d="M473.1,468.65v-.06a7.26,7.26,0,0,1-6.59-6.58h-.06a7.26,7.26,0,0,1-6.58,6.58v.06a7.26,7.26,0,0,1,6.58,6.58h.06A7.26,7.26,0,0,1,473.1,468.65Z"/><path class="cls-4" d="M466.48,993.58v-.06a7.26,7.26,0,0,1-6.58-6.58h-.06a7.26,7.26,0,0,1-6.58,6.58v.06a7.26,7.26,0,0,1,6.58,6.58h.06A7.26,7.26,0,0,1,466.48,993.58Z"/><path class="cls-5" d="M1400.64,978.57v0a4.23,4.23,0,0,1-3.83-3.83h0a4.23,4.23,0,0,1-3.83,3.83v0a4.22,4.22,0,0,1,3.83,3.83h0A4.22,4.22,0,0,1,1400.64,978.57Z"/><path class="cls-5" d="M1084.14,214.28v0a4.23,4.23,0,0,1-3.83-3.83h0a4.23,4.23,0,0,1-3.83,3.83v0a4.23,4.23,0,0,1,3.83,3.83h0A4.23,4.23,0,0,1,1084.14,214.28Z"/><path class="cls-4" d="M1233.66,803.09v0a4.23,4.23,0,0,1-3.83-3.83h0a4.23,4.23,0,0,1-3.83,3.83v0a4.22,4.22,0,0,1,3.83,3.83h0A4.22,4.22,0,0,1,1233.66,803.09Z"/><path class="cls-3" d="M598.66,105.06v0a4.29,4.29,0,0,1-3.89-3.89h0a4.28,4.28,0,0,1-3.89,3.89v0a4.28,4.28,0,0,1,3.89,3.89h0A4.28,4.28,0,0,1,598.66,105.06Z"/><path class="cls-6" d="M673.06,219.72v-.05a6,6,0,0,1-5.41-5.4h0a6,6,0,0,1-5.4,5.4v.05a6,6,0,0,1,5.4,5.4h0A6,6,0,0,1,673.06,219.72Z"/><path class="cls-7" d="M1774.11,793.57v0a3.74,3.74,0,0,1-3.38-3.38h0a3.74,3.74,0,0,1-3.38,3.38v0a3.74,3.74,0,0,1,3.38,3.38h0A3.74,3.74,0,0,1,1774.11,793.57Z"/><path class="cls-7" d="M1674.79,1041.05v0a6.21,6.21,0,0,1-5.63-5.63h-.06a6.21,6.21,0,0,1-5.63,5.63v0a6.22,6.22,0,0,1,5.63,5.64h.06A6.22,6.22,0,0,1,1674.79,1041.05Z"/><path class="cls-7" d="M167.47,806.94v-.05a6.22,6.22,0,0,1-5.64-5.63h-.05a6.2,6.2,0,0,1-5.63,5.63v.05a6.22,6.22,0,0,1,5.63,5.64h.05A6.23,6.23,0,0,1,167.47,806.94Z"/><path class="cls-8" d="M1501.17,799.85v0a3.58,3.58,0,0,1-3.23-3.23h0a3.57,3.57,0,0,1-3.22,3.23v0a3.55,3.55,0,0,1,3.22,3.22h0A3.57,3.57,0,0,1,1501.17,799.85Z"/><path class="cls-1" d="M1458.77,328.66v-.05a6.69,6.69,0,0,1-6.06-6.06h-.06a6.69,6.69,0,0,1-6.06,6.06v.05a6.69,6.69,0,0,1,6.06,6.07h.06A6.69,6.69,0,0,1,1458.77,328.66Z"/><path class="cls-2" d="M1583.79,630.75v0a5.13,5.13,0,0,1-4.65-4.64h0a5.13,5.13,0,0,1-4.65,4.64v0a5.13,5.13,0,0,1,4.65,4.65h0A5.13,5.13,0,0,1,1583.79,630.75Z"/><path class="cls-2" d="M1677.1,266.07v0a5.13,5.13,0,0,1-4.65-4.64h0a5.13,5.13,0,0,1-4.65,4.64v0a5.13,5.13,0,0,1,4.65,4.65h0A5.13,5.13,0,0,1,1677.1,266.07Z"/><path class="cls-9" d="M1832.05,519.67v0a5.13,5.13,0,0,1-4.64-4.65h-.05a5.13,5.13,0,0,1-4.64,4.65v0a5.13,5.13,0,0,1,4.64,4.65h.05A5.13,5.13,0,0,1,1832.05,519.67Z"/><circle class="cls-10" cx="1744.45" cy="392.64" r="2.36"/><circle class="cls-11" cx="824.29" cy="167.52" r="2.19"/><circle class="cls-3" cx="680.67" cy="1027.57" r="4.38"/><circle class="cls-2" cx="1771.39" cy="466.43" r="2.19"/><circle class="cls-2" cx="921.56" cy="635.4" r="2.19"/><circle class="cls-6" cx="1103.64" cy="934.22" r="2.19"/><circle class="cls-3" cx="1379.73" cy="187.28" r="2.14"/></g></svg>