<?xml version="1.0" encoding="utf-8"?>
<!-- Generator: Adobe Illustrator 27.8.1, SVG Export Plug-In . SVG Version: 6.00 Build 0)  -->
<svg version="1.1" id="Warstwa_1" xmlns="http://www.w3.org/2000/svg" xmlns:xlink="http://www.w3.org/1999/xlink" x="0px" y="0px"
	 viewBox="0 0 120 120" style="enable-background:new 0 0 120 120;" xml:space="preserve">
<style type="text/css">
	.st0{opacity:5.000000e-02;}
	.st1{fill:#0B0D14;}
	.st2{opacity:5.000000e-02;fill:#0B0D14;enable-background:new    ;}
	.st3{fill:none;stroke:#0B0D14;stroke-width:6;stroke-linecap:round;stroke-linejoin:round;}
</style>
<g>
	<g id="Layer_1_00000037682813097928985820000009708496863951231641_">
		<g class="st0">
			<path class="st1" d="M60,6c29.8,0,54,24.2,54,54s-24.2,54-54,54S6,89.8,6,60C6,30.2,30.2,6,60,6 M60,0C26.9,0,0,26.9,0,60
				s26.9,60,60,60s60-26.9,60-60S93.1,0,60,0z"/>
		</g>
		<circle class="st2" cx="60" cy="60" r="60"/>
	</g>
	<path class="st3" d="M75.4,38.4c-1.9-1.4-4-2.5-6.3-3.3L65.5,27c-1.7-0.3-3.5-0.4-5.3-0.4s-3.6,0.1-5.3,0.4l-3.6,8.2
		c-3,1.1-5.7,2.7-8.1,4.7l-8.9-1c-2.3,2.8-4.1,5.9-5.4,9.2l5.3,7.3c-0.3,1.5-0.4,3.1-0.4,4.6c0,1.6,0.1,3.1,0.4,4.7l-5.3,7.3
		c1.3,3.4,3.1,6.5,5.3,9.2l8.9-1c2.4,2,5.1,3.6,8,4.7l3.6,8.2c1.7,0.3,3.5,0.4,5.3,0.4s3.6-0.1,5.3-0.4l3.6-8.2
		c2.3-0.8,4.4-1.9,6.3-3.3"/>
	<path class="st3" d="M60.2,74.3c-7.9,0-14.3-6.4-14.3-14.3s6.4-14.3,14.3-14.3"/>
	<line class="st3" x1="69.1" y1="60" x2="94" y2="60"/>
	<polyline class="st3" points="69.1,50.1 79.8,50.1 85.9,41.4 94,41.4 	"/>
	<polyline class="st3" points="69.1,69.9 79.8,69.9 85.9,78.6 94,78.6 	"/>
</g>
<g>
	<g>
	</g>
</g>
</svg>
