<svg version="1.1" id="Layer_1" xmlns="http://www.w3.org/2000/svg" xmlns:xlink="http://www.w3.org/1999/xlink" x="0px" y="0px"
	 viewBox="0 0 1920 550" style="enable-background:new 0 0 1920 550;" xml:space="preserve">
<style type="text/css">
	.st0{fill:none;stroke:#A53F23;stroke-width:2;stroke-miterlimit:10;}
	.st1{fill:none;stroke:#3264B7;stroke-width:2;stroke-miterlimit:10;}
	.st2{fill:none;stroke:#199E91;stroke-width:2;stroke-miterlimit:10;}
	.st3{fill:#D63D13;}
	.st4{fill:#FFFFFF;}
	.st5{fill:#3E66C9;}
	.st6{fill:#12BBAB;}
</style>
<path class="st0" d="M1988.8,185.5c-107.7-3.2-194.1-132.4-264.6-128.2c-107.8,6.4-161,148.4-236.7,170.3
	c-72.8,21.1-184.3-75.3-287.6-41.6c-68.1,22.2-112.6,171.6-215.4,198.6C900.5,406.7,787,290.3,690,294.9
	c-91.7,4.3-186.3,132.4-278,128c-98-4.8-184.1-142.4-268.8-149.4C24.9,263.6-74,385.1-134.6,389.9"/>
<path class="st1" d="M1962.4,81.3c-131,14.8-284.7-83.4-411.7-47.6c-127.3,35.9-214.1,202.7-337.8,244.8
	c-127.2,43.4-290.8-38.2-414.7-4.2c-131.2,36-240,189.7-367.9,196.5c-57.6,3-114-122.6-151.6-118.3C216.3,359.6,197,496.1,160.5,504
	c-42.1,9-97.9-111.1-158.2-106.3c-36.5,2.9-76.4,134.4-136.1,134.3"/>
<path class="st2" d="M1975.6,358.9c-81.6,5.6-157-118.3-208.4-112.8c-100.3,10.7-129.3,148.7-171.4,159.8
	c-54.5,14.4-119.3-97.2-219.7-79.5c-47.9,8.5-91.6,146.1-177.2,155.8c-83.7,9.5-210.2-113.9-342.1-109.7
	C751.8,375.9,640.6,508,526.5,509.6C412.1,511.2,296,382.4,191.4,383.8C58.1,385.5-55.5,517.6-137.8,521.6"/>
<circle class="st3" cx="1438.4" cy="227.9" r="12"/>
<circle class="st4" cx="1438.4" cy="227.9" r="5"/>
<circle class="st5" cx="623.9" cy="375.7" r="12"/>
<rect x="619.9" y="371.7" class="st4" width="8" height="8"/>
<circle class="st6" cx="1163.8" cy="479.5" r="12"/>
<polygon class="st4" points="1158.2,483 1163.8,474 1169.2,483 "/>
</svg>
